<svg width="135" height="31" viewBox="0 0 135 31" fill="none" xmlns="http://www.w3.org/2000/svg">
<path d="M31.1964 17.0222H31.0178C30.075 19.8308 27.5 22.1559 24.0857 22.8741C23.394 23.0196 22.689 23.0935 21.9821 23.0945C20.0172 23.1169 18.0969 22.5113 16.5035 21.3667C13.8821 22.3195 11.4642 23.0838 9.32495 23.6918C10.1863 24.8645 11.2192 25.9023 12.3892 26.7706C15.1685 28.8066 18.5314 29.8996 21.9821 29.8885C23.1651 29.8921 24.3453 29.7729 25.5035 29.5329C29.5226 28.7094 33.0834 26.4111 35.4785 23.0945C36.5737 21.5763 37.371 19.8659 37.8285 18.0532C35.6807 17.3872 33.446 17.0398 31.1964 17.0222Z" fill="url(#paint0_linear_38_391)"/>
<path d="M37.925 11.8069C37.1887 8.43614 35.2467 5.44667 32.4607 3.39534C29.6777 1.35875 26.3112 0.265774 22.8571 0.277436C21.6741 0.273621 20.4939 0.392774 19.3357 0.632955C15.3195 1.45875 11.7617 3.7568 9.36786 7.07141C7.22529 9.99978 6.28175 13.6297 6.72857 17.225C9.05524 17.0053 11.3265 16.3883 13.4429 15.4012C13.4821 11.6576 16.4821 8.19841 20.7643 7.29539C21.452 7.14749 22.1535 7.07241 22.8571 7.07141C25.1258 7.03636 27.3243 7.85389 29.0143 9.36095C25.1107 11.8496 20.4429 14.3382 15.9714 16.5602C15.2321 16.9157 14.4964 17.2926 13.775 17.6446C11.5643 18.7111 9.45714 19.7101 7.58214 20.5669C6.13929 21.2531 4.825 21.8219 3.71786 22.3196C1.42857 23.3293 0 23.9195 0 23.9195C0 23.9195 0.960714 25.4766 3.74643 24.986C5.62832 24.649 7.49055 24.2111 9.325 23.6742C11.4679 23.0662 13.8821 22.2876 16.5036 21.3491C19.125 20.4105 21.8607 19.3368 24.7786 18.1032C26.8 17.2428 28.8786 16.3256 30.9857 15.3123C33.275 14.2245 35.6 13.0548 37.925 11.8105C37.9249 11.8093 37.9249 11.8081 37.925 11.8069Z" fill="url(#paint1_linear_38_391)"/>
<path fill-rule="evenodd" clip-rule="evenodd" d="M50.7535 8.47205C51.6999 7.56929 52.9762 7.09141 54.2857 7.14952C55.7535 7.14952 56.9535 7.59392 57.85 8.47205C58.7462 9.38476 59.2265 10.6238 59.1785 11.8993V15.6251C59.1907 15.7551 59.1443 15.8837 59.0519 15.9764C58.9595 16.069 58.8306 16.1161 58.7 16.105H51.9143V18.2382C51.8839 18.9402 52.1198 19.628 52.575 20.1651C53.0033 20.656 53.6331 20.9256 54.2857 20.8974C54.8434 20.9177 55.3882 20.7272 55.8107 20.3642C56.2356 19.993 56.5267 19.4935 56.6393 18.9421C56.6884 18.7041 56.8988 18.5333 57.1428 18.5332L58.6321 18.5795C58.7564 18.5808 58.8749 18.6321 58.9607 18.7217C59.0646 18.8262 59.1065 18.977 59.0714 19.1199C58.9616 20.2468 58.4238 21.2895 57.5678 22.0351C56.6403 22.7758 55.4736 23.155 54.2857 23.1017C52.9794 23.1608 51.7049 22.69 50.7535 21.7969C49.852 20.8804 49.3712 19.6336 49.425 18.3519V11.8993C49.3766 10.6238 49.857 9.38453 50.7535 8.47205ZM52.575 10.0897C52.1158 10.6371 51.88 11.3362 51.9143 12.0486L51.9 13.9933H56.7214V12.0486C56.7517 11.3344 56.5107 10.635 56.0464 10.0897C55.5983 9.59678 54.9529 9.32831 54.2857 9.35729C53.6331 9.32912 53.0033 9.59876 52.575 10.0897Z" fill="#F9F9F9"/>
<path d="M70.5321 7.41623L68.7892 7.38779C68.541 7.37577 68.3237 7.55218 68.2857 7.79663L65.8464 18.8391L63.3821 7.81796C63.374 7.69353 63.3154 7.57772 63.2197 7.49724C63.124 7.41675 62.9996 7.37852 62.875 7.39134H61.1357C60.8035 7.39134 60.6857 7.59043 60.6857 7.77886L64.4428 22.4618C64.484 22.704 64.6999 22.8777 64.9464 22.8671H66.75C66.87 22.881 66.9906 22.8463 67.0847 22.7707C67.1787 22.6952 67.2383 22.5851 67.25 22.4654L70.9357 7.99217C71.0033 7.85692 70.9866 7.69498 70.8928 7.57621C70.8034 7.47084 70.6706 7.41192 70.5321 7.41623Z" fill="#F9F9F9"/>
<path fill-rule="evenodd" clip-rule="evenodd" d="M73.9286 8.47218C74.8745 7.5687 76.1512 7.0907 77.4607 7.14965C78.9286 7.14965 80.1429 7.59405 81.025 8.47218C81.9213 9.38489 82.4016 10.624 82.3536 11.8994V15.6252C82.3657 15.7552 82.3193 15.8838 82.2269 15.9765C82.1346 16.0691 82.0057 16.1163 81.875 16.1052H75.0893V18.2383C75.059 18.9404 75.2948 19.6281 75.75 20.1652C76.1783 20.6561 76.8082 20.9258 77.4607 20.8976C78.0184 20.9085 78.5604 20.7134 78.9822 20.3501C79.4072 19.9796 79.6973 19.4796 79.8072 18.928C79.8578 18.6895 80.0694 18.5189 80.3143 18.5192L81.8215 18.5796C81.9453 18.5829 82.0631 18.6338 82.15 18.7218C82.2546 18.826 82.2966 18.9771 82.2607 19.12C82.1472 20.249 81.6042 21.292 80.7429 22.0352C79.8154 22.776 78.6486 23.1551 77.4607 23.1018C76.1545 23.1609 74.8799 22.6901 73.9286 21.797C73.027 20.8805 72.5462 19.6337 72.6 18.3521V11.8994C72.5516 10.6239 73.032 9.38466 73.9286 8.47218ZM75.75 10.0898C75.2909 10.6372 75.0551 11.3364 75.0893 12.0487V13.9934H79.8929V12.0487C79.9242 11.335 79.6845 10.6356 79.2215 10.0898C78.7734 9.59691 78.1279 9.32844 77.4607 9.35742C76.8082 9.32925 76.1783 9.59889 75.75 10.0898Z" fill="#F9F9F9"/>
<path d="M91.4464 7.59405C91.0285 7.34842 90.5494 7.22519 90.0642 7.23853C88.8107 7.23853 87.8607 7.88913 87.2428 9.169V7.86424C87.2551 7.73453 87.2086 7.60612 87.1161 7.51399C87.0235 7.42187 86.8945 7.37562 86.7642 7.38785H85.2321C85.1018 7.37562 84.9728 7.42187 84.8803 7.51399C84.7877 7.60612 84.7412 7.73453 84.7535 7.86424V22.3872C84.7412 22.5169 84.7877 22.6453 84.8803 22.7375C84.9728 22.8296 85.1018 22.8758 85.2321 22.8636H86.7642C86.8945 22.8758 87.0235 22.8296 87.1161 22.7375C87.2086 22.6453 87.2551 22.5169 87.2428 22.3872V13.4317C87.2141 12.5557 87.4438 11.6905 87.9035 10.943C88.2353 10.3279 88.861 9.92524 89.5607 9.87648C89.6978 9.85667 89.8364 9.84834 89.975 9.85159C90.2377 9.84931 90.4985 9.89759 90.7428 9.9938C90.8915 10.0484 91.0571 10.0327 91.1928 9.95114C91.2842 9.89001 91.3422 9.79031 91.35 9.68094L91.6821 8.15932C91.7416 7.93947 91.6448 7.70732 91.4464 7.59405Z" fill="#F9F9F9"/>
<path d="M100.643 7.74333C99.8458 7.34069 98.9615 7.13925 98.0679 7.15673C96.7673 7.09836 95.4983 7.56645 94.55 8.45437C93.6458 9.36973 93.1624 10.6167 93.2143 11.8994V18.352C93.1605 19.6337 93.6413 20.8805 94.5429 21.797C95.4942 22.6901 96.7687 23.1609 98.075 23.1018C99.3792 23.1624 100.657 22.7235 101.646 21.8752C102.532 21.0853 103.023 19.9475 102.989 18.7644V18.4338C103 18.3032 102.951 18.1748 102.856 18.0839C102.761 17.993 102.631 17.9492 102.5 17.9645L100.964 17.9361C100.837 17.9284 100.713 17.9762 100.624 18.0669C100.535 18.1576 100.489 18.2825 100.5 18.4089V18.6187C100.506 19.2211 100.259 19.7985 99.8179 20.2114C99.3549 20.6704 98.7207 20.9165 98.0679 20.8904C97.4153 20.9186 96.7854 20.649 96.3571 20.1581C95.9052 19.609 95.6759 18.9115 95.7143 18.2027V12.0487C95.68 11.3363 95.9158 10.6372 96.375 10.0898C96.8033 9.59885 97.4331 9.32921 98.0857 9.35739C98.7386 9.33132 99.3728 9.57741 99.8357 10.0364C100.276 10.4498 100.523 11.0269 100.518 11.6292V11.8674C100.514 11.9962 100.573 12.1189 100.675 12.198C100.766 12.2766 100.883 12.3184 101.004 12.3153L102.529 12.2549C102.659 12.2671 102.788 12.2209 102.88 12.1287C102.973 12.0366 103.019 11.9082 103.007 11.7785V11.4798C103.014 10.714 102.802 9.96187 102.396 9.31117C101.965 8.64 101.359 8.09807 100.643 7.74333Z" fill="#F9F9F9"/>
<path fill-rule="evenodd" clip-rule="evenodd" d="M106.982 8.28358C107.906 7.51851 109.078 7.11524 110.279 7.14947C111.589 7.09455 112.859 7.61276 113.754 8.56799C114.611 9.50301 115.046 10.7651 115.046 12.3152V22.387C115.059 22.5167 115.012 22.6451 114.92 22.7373C114.827 22.8294 114.698 22.8756 114.568 22.8634H113.039C112.909 22.8755 112.779 22.8293 112.686 22.7373C112.593 22.6454 112.546 22.5171 112.557 22.387V21.804C111.786 22.6643 110.693 23.1016 109.286 23.1016C108.207 23.1256 107.153 22.7805 106.3 22.1239C105.446 21.4627 105.014 20.2966 105.014 18.6505C105.014 16.9263 105.539 15.6037 106.55 14.7931C107.561 13.9825 108.9 13.5737 110.536 13.5737H112.546V12.4432C112.588 11.6323 112.364 10.83 111.907 10.1572C111.515 9.61447 110.875 9.30452 110.204 9.33236C109.674 9.32646 109.162 9.52379 108.775 9.88341C108.366 10.2489 108.117 10.7595 108.082 11.3055C108.081 11.4351 108.025 11.5583 107.929 11.6459C107.833 11.7334 107.705 11.7775 107.575 11.7677L105.921 11.7357C105.785 11.7428 105.653 11.6863 105.564 11.5828C105.482 11.4837 105.452 11.352 105.482 11.2273C105.557 10.0832 106.099 9.01955 106.982 8.28358ZM108.168 20.3072C108.587 20.7122 109.156 20.926 109.739 20.8974C110.477 20.9105 111.191 20.642 111.736 20.1473C112.302 19.6144 112.604 18.86 112.561 18.0852V15.6322H110.521C109.736 15.5891 108.963 15.8431 108.357 16.3432C107.839 16.8231 107.575 17.5377 107.575 18.4763C107.575 19.3011 107.775 19.9162 108.168 20.3072Z" fill="#F9F9F9"/>
<path d="M124.679 15.1237C124.019 14.7383 123.336 14.3951 122.632 14.0963C121.957 13.787 121.429 13.5452 121.071 13.3426C120.723 13.1506 120.416 12.8921 120.168 12.5818C119.923 12.2674 119.796 11.8773 119.811 11.4797C119.795 10.9089 120.01 10.3557 120.407 9.94382C120.826 9.52085 121.408 9.29694 122.004 9.32877C122.608 9.29988 123.197 9.51825 123.636 9.93315C124.052 10.3385 124.278 10.9 124.257 11.4797V11.7179C124.257 11.8174 124.293 12.1374 124.736 12.1374H126.118C126.247 12.1455 126.373 12.0963 126.463 12.0031C126.552 11.9099 126.596 11.7821 126.582 11.6539V11.5614C126.629 10.3828 126.173 9.23945 125.325 8.41508C124.403 7.59623 123.195 7.17102 121.961 7.23121C120.579 7.23121 119.461 7.61872 118.639 8.38664C117.794 9.21104 117.343 10.3561 117.4 11.533C117.371 12.3279 117.573 13.1144 117.982 13.7976C118.331 14.3523 118.803 14.8204 119.361 15.1664C119.987 15.5336 120.642 15.8522 121.318 16.1192C122.05 16.432 122.604 16.6916 122.971 16.8871C123.328 17.0825 123.641 17.3472 123.893 17.6657C124.159 18.0065 124.298 18.4288 124.286 18.8602C124.309 19.4375 124.089 19.9982 123.679 20.4067C123.25 20.8257 122.664 21.0463 122.064 21.0147C121.431 21.0431 120.812 20.8236 120.339 20.4032C119.916 20.027 119.678 19.4855 119.689 18.9207V18.6825C119.689 18.5829 119.657 18.263 119.211 18.263H117.782C117.651 18.2519 117.523 18.299 117.43 18.3917C117.338 18.4843 117.291 18.6129 117.304 18.7429V18.9491C117.253 20.0767 117.719 21.1661 118.571 21.9106C119.432 22.643 120.586 23.0127 122.004 23.0127C123.421 23.0127 124.607 22.6252 125.457 21.8608C126.33 21.0712 126.807 19.9375 126.761 18.7642C126.788 17.9661 126.567 17.1791 126.129 16.5103C125.749 15.9516 125.255 15.4791 124.679 15.1237Z" fill="#F9F9F9"/>
<path d="M134.411 7.38773H132.189V4.09918C132.201 3.96911 132.153 3.84082 132.06 3.74886C131.967 3.6569 131.838 3.61073 131.707 3.62278H130.207C130.077 3.61055 129.948 3.6568 129.855 3.74893C129.763 3.84106 129.716 3.96947 129.729 4.09918V7.38773H128.618C128.488 7.3755 128.359 7.42175 128.266 7.51388C128.174 7.60601 128.127 7.73441 128.139 7.86413V8.85247C128.128 8.98186 128.175 9.10949 128.268 9.20131C128.36 9.29313 128.488 9.3398 128.618 9.32887H129.729V19.0417C129.729 20.5028 130.057 21.5303 130.707 22.06C131.357 22.5897 132.293 22.8635 133.511 22.8635H134.261C134.391 22.8757 134.52 22.8295 134.613 22.7373C134.705 22.6452 134.752 22.5168 134.739 22.3871V21.1037C134.752 20.974 134.705 20.8455 134.613 20.7534C134.52 20.6613 134.391 20.615 134.261 20.6273H133.954C133.466 20.6836 132.978 20.5222 132.622 20.1864C132.332 19.8736 132.189 19.2763 132.189 18.4088V9.32887H134.411C134.541 9.3398 134.669 9.29313 134.761 9.20131C134.854 9.10949 134.9 8.98186 134.889 8.85247V7.86413C134.902 7.73441 134.855 7.60601 134.763 7.51388C134.67 7.42175 134.541 7.3755 134.411 7.38773Z" fill="#F9F9F9"/>
<defs>
<linearGradient id="paint0_linear_38_391" x1="32.9402" y1="15.2097" x2="14.3922" y2="31.0803" gradientUnits="userSpaceOnUse">
<stop offset="0.09" stop-color="#F41010"/>
<stop offset="0.8" stop-color="#B70D18"/>
<stop offset="1" stop-color="#F41010"/>
</linearGradient>
<linearGradient id="paint1_linear_38_391" x1="0" y1="25.0884" x2="37.9286" y2="25.0884" gradientUnits="userSpaceOnUse">
<stop stop-color="#F41010"/>
<stop offset="1" stop-color="#B70D18"/>
</linearGradient>
</defs>
</svg>
