<svg width="239" height="53" viewBox="0 0 239 53" fill="none" xmlns="http://www.w3.org/2000/svg">
<path d="M55.2292 29.7179H54.9131C53.2439 34.7024 48.6852 38.8288 42.6406 40.1033C41.4161 40.3616 40.1681 40.4927 38.9165 40.4945C35.4379 40.5344 32.0383 39.4596 29.2174 37.4281C24.5765 39.1191 20.296 40.4756 16.5087 41.5545C18.0336 43.6358 19.8622 45.4776 21.9336 47.0186C26.8538 50.6319 32.8075 52.5718 38.9165 52.552C41.0109 52.5585 43.1003 52.347 45.1507 51.9211C52.266 50.4596 58.5699 46.3806 62.8102 40.4945C64.7491 37.8002 66.1606 34.7647 66.9705 31.5476C63.168 30.3656 59.2118 29.749 55.2292 29.7179Z" fill="url(#paint0_linear_3_984)"/>
<path d="M67.1413 20.4617C65.8378 14.4794 62.3997 9.17393 57.4675 5.53336C52.5406 1.91895 46.5806 -0.0207928 40.4656 -9.54732e-05C38.3712 -0.00686599 36.2818 0.204598 34.2314 0.630857C27.1212 2.09643 20.8227 6.17486 16.5846 12.0574C12.7914 17.2545 11.121 23.6966 11.9121 30.0774C16.0311 29.6874 20.0521 28.5925 23.7988 26.8406C23.8684 20.1967 29.1795 14.0575 36.7605 12.4549C37.978 12.1924 39.22 12.0592 40.4656 12.0574C44.4819 11.9952 48.3742 13.4461 51.366 16.1207C44.4553 20.5374 36.1914 24.9541 28.2753 28.8975C26.9665 29.5285 25.664 30.1973 24.3869 30.8219C20.4731 32.7148 16.7426 34.4878 13.4232 36.0084C10.8688 37.2261 8.54204 38.2356 6.58198 39.119C2.5291 40.9109 0 41.9582 0 41.9582C0 41.9582 1.70082 44.7218 6.63257 43.8511C9.96421 43.253 13.2611 42.4758 16.5087 41.5229C20.3024 40.444 24.5765 39.0622 29.2174 37.3965C33.8583 35.7307 38.7016 33.8253 43.8672 31.6359C47.4459 30.109 51.1258 28.4811 54.8562 26.6829C58.9091 24.7522 63.0252 22.6763 67.1413 20.468C67.1411 20.4659 67.1411 20.4638 67.1413 20.4617Z" fill="url(#paint1_linear_3_984)"/>
<path fill-rule="evenodd" clip-rule="evenodd" d="M89.8526 14.5435C91.528 12.9413 93.7875 12.0932 96.1058 12.1963C98.7044 12.1963 100.829 12.985 102.416 14.5435C104.003 16.1633 104.853 18.3623 104.768 20.6258V27.2382C104.789 27.4689 104.707 27.6972 104.544 27.8616C104.38 28.026 104.152 28.1097 103.921 28.09H91.9075V31.8757C91.8538 33.1217 92.2713 34.3423 93.0772 35.2955C93.8354 36.1667 94.9505 36.6453 96.1058 36.5952C97.0932 36.6312 98.0576 36.2931 98.8056 35.6488C99.5579 34.9902 100.073 34.1037 100.272 33.125C100.359 32.7027 100.732 32.3996 101.164 32.3994L103.801 32.4814C104.021 32.4838 104.23 32.5748 104.382 32.7338C104.566 32.9194 104.64 33.1869 104.578 33.4405C104.384 35.4405 103.432 37.291 101.916 38.6143C100.274 39.9289 98.2088 40.6017 96.1058 40.5071C93.7932 40.6121 91.5368 39.7765 89.8526 38.1916C88.2565 36.5649 87.4052 34.3522 87.5005 32.0776V20.6258C87.4148 18.3622 88.2653 16.1629 89.8526 14.5435ZM93.0772 17.4143C92.2643 18.3858 91.8468 19.6266 91.9075 20.8908L91.8822 24.3421H100.418V20.8908C100.472 19.6233 100.045 18.3821 99.2229 17.4143C98.4296 16.5396 97.2869 16.0631 96.1058 16.1145C94.9505 16.0645 93.8354 16.5431 93.0772 17.4143Z" fill="#2C2C2C"/>
<path d="M124.868 12.6695L121.782 12.6191C121.343 12.5977 120.958 12.9108 120.891 13.3446L116.573 32.942L112.21 13.3825C112.196 13.1617 112.092 12.9561 111.922 12.8133C111.753 12.6705 111.533 12.6026 111.312 12.6254H108.233C107.645 12.6254 107.436 12.9787 107.436 13.3131L114.088 39.3714C114.161 39.8012 114.543 40.1096 114.979 40.0907H118.172C118.385 40.1154 118.598 40.0538 118.765 39.9197C118.931 39.7856 119.037 39.5903 119.057 39.3777L125.582 13.6917C125.702 13.4516 125.673 13.1642 125.507 12.9535C125.348 12.7665 125.113 12.6619 124.868 12.6695Z" fill="#2C2C2C"/>
<path fill-rule="evenodd" clip-rule="evenodd" d="M130.881 14.5435C132.556 12.94 134.816 12.0917 137.134 12.1963C139.733 12.1963 141.883 12.985 143.444 14.5435C145.031 16.1633 145.881 18.3623 145.796 20.6258V27.2382C145.818 27.4689 145.736 27.6972 145.572 27.8616C145.409 28.026 145.18 28.1097 144.949 28.09H132.936V31.8757C132.882 33.1217 133.3 34.3423 134.106 35.2955C134.864 36.1667 135.979 36.6452 137.134 36.5952C138.122 36.6146 139.081 36.2685 139.828 35.6236C140.58 34.9661 141.094 34.0788 141.288 33.0998C141.378 32.6765 141.753 32.3738 142.186 32.3742L144.854 32.4814C145.074 32.4872 145.282 32.5777 145.436 32.7338C145.621 32.9187 145.695 33.1869 145.632 33.4405C145.431 35.4442 144.47 37.2953 142.945 38.6143C141.303 39.9289 139.237 40.6017 137.134 40.5071C134.822 40.6121 132.565 39.7765 130.881 38.1916C129.285 36.5649 128.434 34.3522 128.529 32.0776V20.6258C128.443 18.3622 129.294 16.1629 130.881 14.5435ZM134.106 17.4143C133.293 18.3858 132.875 19.6266 132.936 20.8908V24.3421H141.44V20.8908C141.495 19.6241 141.071 18.383 140.251 17.4143C139.458 16.5396 138.315 16.0631 137.134 16.1145C135.979 16.0645 134.864 16.5431 134.106 17.4143Z" fill="#2C2C2C"/>
<path d="M161.894 12.985C161.154 12.5491 160.306 12.3304 159.447 12.354C157.228 12.354 155.546 13.5087 154.452 15.7801V13.4645C154.474 13.2343 154.392 13.0064 154.228 12.8429C154.064 12.6794 153.836 12.5973 153.605 12.619H150.892C150.662 12.5973 150.433 12.6794 150.27 12.8429C150.106 13.0064 150.023 13.2343 150.045 13.4645V39.2389C150.023 39.4691 150.106 39.697 150.27 39.8605C150.433 40.024 150.662 40.1061 150.892 40.0844H153.605C153.836 40.1061 154.064 40.024 154.228 39.8605C154.392 39.697 154.474 39.4691 154.452 39.2389V23.3452C154.401 21.7906 154.808 20.2552 155.622 18.9286C156.209 17.8369 157.317 17.1222 158.556 17.0357C158.798 17.0006 159.044 16.9858 159.289 16.9915C159.754 16.9875 160.216 17.0732 160.648 17.2439C160.912 17.3408 161.205 17.313 161.445 17.1682C161.607 17.0597 161.71 16.8828 161.723 16.6887L162.311 13.9882C162.417 13.598 162.245 13.186 161.894 12.985Z" fill="#2C2C2C"/>
<path d="M178.175 13.25C176.764 12.5354 175.199 12.1779 173.616 12.2089C171.314 12.1054 169.067 12.9361 167.389 14.5119C165.788 16.1364 164.932 18.3494 165.024 20.6258V32.0776C164.929 34.3522 165.78 36.5649 167.376 38.1916C169.06 39.7765 171.316 40.6121 173.629 40.5071C175.938 40.6147 178.201 39.8358 179.952 38.3304C181.519 36.9284 182.389 34.9091 182.329 32.8095V32.2227C182.348 31.991 182.261 31.7631 182.094 31.6018C181.926 31.4404 181.694 31.3627 181.463 31.3899L178.744 31.3394C178.519 31.3258 178.299 31.4105 178.141 31.5716C177.983 31.7326 177.903 31.9541 177.922 32.1786V32.5508C177.933 33.62 177.495 34.6448 176.715 35.3775C175.895 36.1921 174.772 36.6289 173.616 36.5826C172.461 36.6326 171.346 36.1541 170.588 35.2829C169.788 34.3084 169.382 33.0706 169.45 31.8126V20.8908C169.389 19.6266 169.807 18.3858 170.619 17.4143C171.378 16.5431 172.493 16.0645 173.648 16.1145C174.804 16.0683 175.927 16.505 176.746 17.3196C177.525 18.0532 177.963 19.0775 177.954 20.1463V20.5691C177.948 20.7977 178.051 21.0155 178.232 21.1558C178.393 21.2953 178.601 21.3696 178.814 21.3641L181.514 21.2568C181.744 21.2785 181.973 21.1964 182.136 21.0329C182.3 20.8694 182.383 20.6415 182.361 20.4113V19.8813C182.373 18.5221 181.998 17.1873 181.28 16.0325C180.517 14.8414 179.444 13.8796 178.175 13.25Z" fill="#2C2C2C"/>
<path fill-rule="evenodd" clip-rule="evenodd" d="M189.398 14.2091C191.033 12.8513 193.108 12.1356 195.234 12.1963C197.555 12.0989 199.802 13.0185 201.386 14.7138C202.903 16.3732 203.675 18.6131 203.675 21.3641V39.2389C203.697 39.4691 203.614 39.697 203.45 39.8605C203.287 40.024 203.058 40.1061 202.828 40.0844H200.121C199.89 40.1058 199.661 40.0239 199.497 39.8607C199.332 39.6974 199.248 39.4698 199.268 39.2389V38.2042C197.902 39.7311 195.967 40.5072 193.476 40.5072C191.567 40.5497 189.701 39.9372 188.19 38.772C186.679 37.5985 185.914 35.5289 185.914 32.6076C185.914 29.5475 186.844 27.2004 188.633 25.7618C190.422 24.3232 192.793 23.5976 195.689 23.5976H199.249V21.5912C199.322 20.1522 198.925 18.7283 198.117 17.5342C197.423 16.571 196.289 16.021 195.101 16.0704C194.163 16.0599 193.258 16.4101 192.572 17.0483C191.848 17.697 191.408 18.6031 191.345 19.5721C191.343 19.8022 191.245 20.0209 191.074 20.1762C190.904 20.3316 190.677 20.4098 190.448 20.3924L187.52 20.3356C187.279 20.3482 187.045 20.2479 186.888 20.0643C186.743 19.8884 186.689 19.6548 186.742 19.4333C186.875 17.403 187.835 15.5152 189.398 14.2091ZM191.497 35.5479C192.239 36.2666 193.246 36.6459 194.279 36.5952C195.585 36.6184 196.849 36.1421 197.814 35.2639C198.817 34.3183 199.351 32.9794 199.274 31.6044V27.2508H195.664C194.273 27.1745 192.904 27.6252 191.832 28.5127C190.915 29.3645 190.448 30.6327 190.448 32.2985C190.448 33.7623 190.802 34.8538 191.497 35.5479Z" fill="#2C2C2C"/>
<path d="M220.727 26.3486C219.56 25.6644 218.35 25.0554 217.104 24.5251C215.909 23.9762 214.973 23.5471 214.341 23.1875C213.724 22.8468 213.181 22.3879 212.742 21.8373C212.308 21.2793 212.084 20.5871 212.109 19.8813C212.081 18.8683 212.462 17.8865 213.165 17.1556C213.907 16.4049 214.936 16.0076 215.991 16.064C217.061 16.0128 218.105 16.4003 218.881 17.1367C219.619 17.856 220.018 18.8526 219.981 19.8813V20.304C219.981 20.4807 220.044 21.0486 220.828 21.0486H223.275C223.504 21.0629 223.728 20.9757 223.886 20.8103C224.045 20.6448 224.122 20.418 224.097 20.1905V20.0264C224.181 17.9347 223.372 15.9055 221.872 14.4425C220.24 12.9892 218.1 12.2346 215.916 12.3414C213.469 12.3414 211.49 13.0292 210.035 14.392C208.538 15.8551 207.74 17.8873 207.841 19.9759C207.79 21.3868 208.148 22.7825 208.872 23.9951C209.49 24.9794 210.325 25.8102 211.313 26.4243C212.422 27.076 213.581 27.6413 214.777 28.1152C216.074 28.6705 217.054 29.1311 217.705 29.4781C218.336 29.8248 218.891 30.2947 219.336 30.8599C219.807 31.4648 220.053 32.2141 220.032 32.9799C220.073 34.0044 219.683 34.9995 218.957 35.7245C218.198 36.468 217.161 36.8595 216.099 36.8034C214.978 36.8539 213.882 36.4643 213.045 35.7182C212.295 35.0506 211.875 34.0896 211.894 33.0871V32.6644C211.894 32.4877 211.837 31.9199 211.047 31.9199H208.518C208.287 31.9002 208.058 31.9838 207.895 32.1483C207.731 32.3127 207.649 32.541 207.671 32.7717V33.1376C207.581 35.1387 208.407 37.0722 209.915 38.3934C211.439 39.6932 213.481 40.3494 215.991 40.3494C218.502 40.3494 220.601 39.6617 222.106 38.3051C223.651 36.9038 224.496 34.8918 224.413 32.8095C224.461 31.393 224.07 29.9963 223.294 28.8093C222.622 27.8178 221.747 26.9792 220.727 26.3486Z" fill="#2C2C2C"/>
<path d="M237.957 12.6191H234.024V6.78274C234.044 6.55191 233.96 6.32423 233.795 6.16103C233.63 5.99782 233.402 5.91588 233.17 5.93727H230.515C230.284 5.91557 230.056 5.99765 229.892 6.16115C229.728 6.32465 229.646 6.55254 229.668 6.78274V12.6191H227.701C227.471 12.5974 227.242 12.6794 227.078 12.8429C226.915 13.0064 226.832 13.2343 226.854 13.4645V15.2186C226.835 15.4482 226.918 15.6747 227.081 15.8377C227.244 16.0006 227.471 16.0835 227.701 16.0641H229.668V33.3017C229.668 35.8949 230.249 37.7183 231.4 38.6585C232.551 39.5986 234.207 40.0844 236.363 40.0844H237.691C237.922 40.1061 238.15 40.024 238.314 39.8605C238.478 39.697 238.56 39.4691 238.538 39.2389V36.9612C238.56 36.731 238.478 36.5031 238.314 36.3396C238.15 36.1761 237.922 36.094 237.691 36.1157H237.147C236.284 36.2156 235.421 35.9292 234.789 35.3333C234.277 34.7781 234.024 33.7181 234.024 32.1786V16.0641H237.957C238.187 16.0835 238.414 16.0006 238.577 15.8377C238.74 15.6747 238.823 15.4482 238.804 15.2186V13.4645C238.826 13.2343 238.744 13.0064 238.58 12.8429C238.416 12.6794 238.187 12.5974 237.957 12.6191Z" fill="#2C2C2C"/>
<defs>
<linearGradient id="paint0_linear_3_984" x1="58.3164" y1="26.5011" x2="25.4113" y2="54.5872" gradientUnits="userSpaceOnUse">
<stop offset="0.09" stop-color="#F41010"/>
<stop offset="0.8" stop-color="#B70D18"/>
<stop offset="1" stop-color="#F41010"/>
</linearGradient>
<linearGradient id="paint1_linear_3_984" x1="0" y1="44.0327" x2="67.1476" y2="44.0327" gradientUnits="userSpaceOnUse">
<stop stop-color="#F41010"/>
<stop offset="1" stop-color="#B70D18"/>
</linearGradient>
</defs>
</svg>
