<svg width="67" height="20" viewBox="0 0 67 20" fill="none" xmlns="http://www.w3.org/2000/svg">
<path d="M3.06 16C2.916 16 2.838 15.934 2.826 15.802L0.432 3.634L0.414 3.562C0.414 3.454 0.48 3.4 0.612 3.4H2.34C2.484 3.4 2.562 3.466 2.574 3.598L3.834 11.104C3.846 11.14 3.864 11.158 3.888 11.158C3.912 11.158 3.93 11.14 3.942 11.104L5.076 3.598C5.088 3.466 5.166 3.4 5.31 3.4H6.75C6.894 3.4 6.972 3.466 6.984 3.598L8.208 11.104C8.22 11.14 8.238 11.158 8.262 11.158C8.286 11.158 8.304 11.14 8.316 11.104L9.45 3.598C9.462 3.466 9.54 3.4 9.684 3.4H11.358C11.514 3.4 11.58 3.478 11.556 3.634L9.27 15.802C9.258 15.934 9.18 16 9.036 16H7.506C7.362 16 7.284 15.934 7.272 15.802L6.066 8.152C6.054 8.104 6.036 8.08 6.012 8.08C5.988 8.08 5.97 8.104 5.958 8.152L4.842 15.802C4.83 15.934 4.752 16 4.608 16H3.06ZM12.5149 19.582C12.4909 19.582 12.4669 19.558 12.4429 19.51C12.4189 19.474 12.4069 19.426 12.4069 19.366V18.07C12.4069 18.01 12.4249 17.956 12.4609 17.908C12.4969 17.872 12.5389 17.854 12.5869 17.854C12.9829 17.842 13.2949 17.788 13.5229 17.692C13.7509 17.608 13.9309 17.434 14.0629 17.17C14.2069 16.918 14.3089 16.546 14.3689 16.054L14.3509 15.946L12.0829 7.018V6.946C12.0829 6.838 12.1489 6.784 12.2809 6.784H14.0449C14.1889 6.784 14.2669 6.85 14.2789 6.982L15.3769 12.94C15.3889 12.976 15.4069 12.994 15.4309 12.994C15.4549 12.994 15.4729 12.976 15.4849 12.94L16.5469 6.982C16.5589 6.85 16.6369 6.784 16.7809 6.784L18.5629 6.82C18.7309 6.82 18.7969 6.898 18.7609 7.054L16.3489 16.504C16.1209 17.356 15.8809 17.992 15.6289 18.412C15.3769 18.832 15.0229 19.132 14.5669 19.312C14.1109 19.492 13.4569 19.582 12.6049 19.582H12.5149ZM22.4978 16.108C21.5498 16.108 20.7938 15.88 20.2298 15.424C19.6658 14.968 19.3838 14.35 19.3838 13.57V13.444C19.3838 13.384 19.4018 13.336 19.4377 13.3C19.4858 13.252 19.5398 13.228 19.5998 13.228H21.1478C21.2078 13.228 21.2558 13.252 21.2918 13.3C21.3398 13.336 21.3638 13.384 21.3638 13.444V13.534C21.3638 13.822 21.4718 14.062 21.6878 14.254C21.9158 14.446 22.1918 14.542 22.5158 14.542C22.8278 14.542 23.0738 14.452 23.2538 14.272C23.4338 14.092 23.5238 13.864 23.5238 13.588C23.5238 13.348 23.4458 13.15 23.2898 12.994C23.1338 12.826 22.9658 12.7 22.7858 12.616C22.6058 12.532 22.2818 12.394 21.8138 12.202C21.1298 11.938 20.5658 11.602 20.1218 11.194C19.6898 10.786 19.4738 10.18 19.4738 9.376C19.4738 8.536 19.7378 7.882 20.2658 7.414C20.8058 6.934 21.5318 6.694 22.4438 6.694C23.3798 6.694 24.1178 6.946 24.6578 7.45C25.2098 7.942 25.4858 8.608 25.4858 9.448C25.4858 9.508 25.4618 9.562 25.4138 9.61C25.3778 9.646 25.3298 9.664 25.2698 9.664H23.7578C23.6978 9.664 23.6438 9.646 23.5957 9.61C23.5598 9.562 23.5418 9.508 23.5418 9.448V9.34C23.5418 9.052 23.4398 8.812 23.2358 8.62C23.0438 8.428 22.7978 8.332 22.4978 8.332C22.1858 8.332 21.9338 8.434 21.7418 8.638C21.5618 8.83 21.4718 9.064 21.4718 9.34C21.4718 9.568 21.5438 9.76 21.6878 9.916C21.8318 10.072 21.9938 10.198 22.1738 10.294C22.3538 10.378 22.6538 10.51 23.0738 10.69C23.5778 10.894 23.9978 11.098 24.3338 11.302C24.6818 11.494 24.9818 11.776 25.2338 12.148C25.4978 12.508 25.6298 12.958 25.6298 13.498C25.6298 14.302 25.3478 14.938 24.7838 15.406C24.2198 15.874 23.4578 16.108 22.4978 16.108ZM21.6158 5.65C21.5318 5.65 21.4718 5.626 21.4358 5.578C21.3998 5.53 21.4058 5.47 21.4538 5.398L22.5158 3.544C22.5638 3.448 22.6538 3.4 22.7858 3.4H24.0818C24.1778 3.4 24.2378 3.43 24.2618 3.49C24.2858 3.538 24.2738 3.598 24.2258 3.67L22.8938 5.524C22.8338 5.608 22.7498 5.65 22.6418 5.65H21.6158ZM27.0052 16C26.9452 16 26.8912 15.982 26.8432 15.946C26.8072 15.898 26.7892 15.844 26.7892 15.784V3.616C26.7892 3.556 26.8072 3.508 26.8432 3.472C26.8912 3.424 26.9452 3.4 27.0052 3.4H28.6612C28.7212 3.4 28.7692 3.424 28.8052 3.472C28.8532 3.508 28.8772 3.556 28.8772 3.616V15.784C28.8772 15.844 28.8532 15.898 28.8052 15.946C28.7692 15.982 28.7212 16 28.6612 16H27.0052ZM31.5451 5.542C31.1731 5.542 30.8671 5.422 30.6271 5.182C30.3871 4.942 30.2671 4.636 30.2671 4.264C30.2671 3.892 30.3871 3.586 30.6271 3.346C30.8671 3.106 31.1731 2.986 31.5451 2.986C31.9171 2.986 32.2171 3.106 32.4451 3.346C32.6851 3.586 32.8051 3.892 32.8051 4.264C32.8051 4.636 32.6851 4.942 32.4451 5.182C32.2051 5.422 31.9051 5.542 31.5451 5.542ZM35.2531 5.542C34.8811 5.542 34.5751 5.422 34.3351 5.182C34.1071 4.942 33.9931 4.636 33.9931 4.264C33.9931 3.892 34.1071 3.586 34.3351 3.346C34.5751 3.106 34.8811 2.986 35.2531 2.986C35.6251 2.986 35.9311 3.106 36.1711 3.346C36.4111 3.586 36.5311 3.892 36.5311 4.264C36.5311 4.636 36.4111 4.942 36.1711 5.182C35.9311 5.422 35.6251 5.542 35.2531 5.542ZM30.7171 16C30.6571 16 30.6031 15.982 30.5551 15.946C30.5191 15.898 30.5011 15.844 30.5011 15.784V7.018C30.5011 6.958 30.5191 6.91 30.5551 6.874C30.6031 6.826 30.6571 6.802 30.7171 6.802H32.3731C32.4331 6.802 32.4811 6.826 32.5171 6.874C32.5651 6.91 32.5891 6.958 32.5891 7.018V15.784C32.5891 15.844 32.5651 15.898 32.5171 15.946C32.4811 15.982 32.4331 16 32.3731 16H30.7171ZM32.7511 19.69C32.6071 19.69 32.5351 19.618 32.5351 19.474V18.124C32.5351 17.98 32.6071 17.908 32.7511 17.908C33.2791 17.908 33.6511 17.77 33.8671 17.494C34.0951 17.218 34.2091 16.816 34.2091 16.288V7.018C34.2091 6.958 34.2271 6.91 34.2631 6.874C34.3111 6.826 34.3651 6.802 34.4251 6.802H36.0811C36.1411 6.802 36.1891 6.826 36.2251 6.874C36.2731 6.91 36.2971 6.958 36.2971 7.018V16.288C36.2971 17.092 36.2191 17.728 36.0631 18.196C35.9071 18.676 35.5711 19.048 35.0551 19.312C34.5391 19.576 33.7711 19.702 32.7511 19.69ZM64.7227 0.390625C65.3203 0.0390625 66.0938 0.53125 65.9531 1.23438L63.4219 16.4219C63.3516 16.9844 62.7539 17.3008 62.2617 17.0898L57.9023 15.2266L55.6523 17.9688C55.1602 18.5664 54.1758 18.25 54.1758 17.4062V14.5586L62.6133 4.25781C62.7891 4.04688 62.5078 3.80078 62.332 3.97656L52.2422 12.8711L48.4805 11.2891C47.8477 11.043 47.7773 10.1289 48.4102 9.77734L64.7227 0.390625Z" fill="white"/>
</svg>
