<?xml version="1.0" encoding="UTF-8" standalone="no"?>
<svg
   height="20"
   viewBox="0 -960 840 800"
   width="21"
   fill="#5f6368"
   version="1.1"
   id="svg1"
   sodipodi:docname="thumb-up.svg"
   inkscape:version="1.3.2 (091e20e, 2023-11-25, custom)"
   xmlns:inkscape="http://www.inkscape.org/namespaces/inkscape"
   xmlns:sodipodi="http://sodipodi.sourceforge.net/DTD/sodipodi-0.dtd"
   xmlns="http://www.w3.org/2000/svg"
   xmlns:svg="http://www.w3.org/2000/svg">
  <defs
     id="defs1" />
  <sodipodi:namedview
     id="namedview1"
     pagecolor="#ffffff"
     bordercolor="#000000"
     borderopacity="0.25"
     inkscape:showpageshadow="2"
     inkscape:pageopacity="0.0"
     inkscape:pagecheckerboard="0"
     inkscape:deskcolor="#d1d1d1"
     inkscape:zoom="13.243521"
     inkscape:cx="-0.56631466"
     inkscape:cy="8.4947199"
     inkscape:window-width="1920"
     inkscape:window-height="1137"
     inkscape:window-x="-8"
     inkscape:window-y="224"
     inkscape:window-maximized="1"
     inkscape:current-layer="svg1" />
  <path
     d="M 640,-160 H 200 v -520 l 280,-280 50,50 q 7,7 11.5,19 4.5,12 4.5,23 v 14 l -44,174 h 258 q 32,0 56,24 24,24 24,56 v 80 q 0,7 -2,15 -2,8 -4,15 l -120,282 q -9,20 -30,34 -21,14 -44,14 z m -360,-80 h 360 l 120,-280 v -80 H 400 l 54,-220 -174,174 z m 0,-406 v 406 z m -80,-34 v 80 H 80 v 360 h 120 v 80 H 0 v -520 z"
     id="path1"
     style="fill:#63ce7b;fill-opacity:1" />
</svg>
